<svg xmlns="http://www.w3.org/2000/svg" viewBox="0 0 238.73 238.68" class="logo-svg-dark"><path fill="#97a769" d="M119.25 0a119.34 119.34 0 0 0-5.289 238.56 119.36 119.36 0 0 0 93.6-199.67A118.55 118.55 0 0 0 124.85.13l-5.6-.129zm5.381 4.51a115.29 115.29 0 0 1 109.75 108.78 77.29 77.29 0 0 1-.201 11.461 114.58 114.58 0 0 1-24.189 65.479 27.27 27.27 0 0 1-1.881 2.361 115.11 115.11 0 0 1-86.26 42 2.29 2.29 0 0 1 .441-.48 2.68 2.68 0 0 0 1-3.15c.52.18.65.92 1 .57s.779-1.18.609-1.49c-.83-1.4-.439-2.501.391-3.721a31.18 31.18 0 0 1 3.148-4.42 44.71 44.71 0 0 0 6.711-8.08c1.51-2.44 2.6-5.108 4-7.648l1.881-3a12.6 12.6 0 0 1 2.488-3.891 8.08 8.08 0 0 0 1.791-2.449c1.05-2.12 1.44-4.681 3.67-6.121.26-.13.43-.609.26-.609-.83-.13-.56-.48-.17-.83a2 2 0 0 0 .391-2.451 13.66 13.66 0 0 1-.391-2c-.44.26-.92.35-.92.83-.09 1.61-1.269-.219-1.619.521-.66-.35-.22-.65 0-1.09a35.21 35.21 0 0 1 4.328-6 80.17 80.17 0 0 0 8.352-11.111l2.84-4.719c.91-1.83 3.36-3.32 1.57-5.9a.22.22 0 0 1 0-.131 1.83 1.83 0 0 0-.441-2.32 1.68 1.68 0 0 1-.26-1.568 2.64 2.64 0 0 0-.57-2.58c-.66-.75-.089-1.361.48-1.361 1.05.09 1.841-.74 2.711-.74 1.31-.09 1.699-.53 1.439-1.75a.66.66 0 0 1 .129-.568c.44-.52 4.162-1.091 4.512-.521.8 1.32 1.799.66 2.799.66 0-.65-.66-1.389 0-1.789s.96.43 1.4.74c.92.7 1.791 1.619 3.06 1.359a5.73 5.73 0 0 1 1.309 0c1.06-.36 1.451.61 2.06 1 .93.57 2.01.39 2.93.74 3.63 1.49 7.22 3.02 10.76 4.68a19.36 19.36 0 0 1 4.592 2.67 1.11 1.11 0 0 0 1.568.17.51.51 0 0 0 0-.83c-1.22-1.05-2.01-2.629-3.67-3.109a12.62 12.62 0 0 1-3.719-2 2.86 2.86 0 0 1-1.221-2.32c0-.62-.66-1.84-1.66-1.84-3.14.18-6-1.05-9-1.57-1-.17-2.17-1.31-2-2.269s1.49-.791 2.49-.791a6.64 6.64 0 0 0 .92.131c1.8.09 3.409.96 5.119 1.4.83.18 2.071.869 2.451-.131s-.881-1.65-1.621-2c-2.67-1.25-4.419-3.68-6.779-5.25-1.24-.84-2.02-2.449-3.24-3.109a47.5 47.5 0 0 0-6-2.93c-3.71-1.36-7.21-3.761-11.5-2.891a18.1 18.1 0 0 1-4.07-.131c-.52 0-1.26.652-1-.568.05-.26-.74-.26-.52-.83.7 0 1.88.71 1.57-1 0-.53.56-.441 1-.441 1.14-.08 2.5.791 3.5-.389.17-.22.301-.13.391 0 1.05 1.71 2.75 1.009 4.24 1.139.69.04 1.08-.96 2-.35a6 6 0 0 0 5 .52 5.86 5.86 0 0 1 4.549.391c1.49.83 3.289.529 4.859 1.619a8.14 8.14 0 0 0 4.772 1.141 1.22 1.22 0 0 1 1 .17c1.57 1.51 3.76 1.82 5.51 3 1.32.87 2.939 1.481 3.939 2.621a17.83 17.83 0 0 0 4.371 3.76 13.68 13.68 0 0 1 2.889 2.58c1.11 1.14 1.711 2.67 3.111 3.5 1.75 1.01 2.839 2.889 4.94 3.459.17.05.259.44.389.66.79 1.4 1.53 2.931 3.41 3.061h.441c-.04-.04-.131-.17-.131-.17a3.69 3.69 0 0 0 .74-3.281 10.5 10.5 0 0 0-1.881-3.76l-1-1.359a11.21 11.21 0 0 0-.658-.699 13 13 0 0 1-2.361-3.281 2.06 2.06 0 0 1-.26-.66l-7-9.49c-2.41-3.18-4.38-6.72-6.65-10a47.13 47.13 0 0 1-5.769-7c-.52-.75-1.4-1.059-1.66-2.059a.15.15 0 0 1 0-.09l-7.519-9.191c-1.44-1.79-2.97-3.68-5.07-4.68-2.32-1.14-7.44-1.36-9.19 1a.77.77 0 0 0-.17.221 4.46 4.46 0 0 1-2.361 3.539c-.91.39-2.618-.129-3.318.871s.349 2 .439 3a.23.23 0 0 1-.35.17c-.74-.39-1.001.66-1.441.92a1 1 0 0 1-.699.09c-.57-.13-1.4-1.27-2.1-1.66a1.65 1.65 0 0 0-.92.17h-.09a1.31 1.31 0 0 0-.391.439c-.13.31-.22.61-.35.92a2.77 2.77 0 0 1-.611 1c-.48.52-1.27.43-1.75 1a4.33 4.33 0 0 0-.559 1.951c-.22.7-.431 1.58-1.221 1.84a2 2 0 0 1-2-.701c-.64-.52-1.13-1.26-2-1-.65.17-.91.83-1.57 1-.91.22-1.219-.429-1.219-1.219a3.29 3.29 0 0 1 1.568-2.801c.6-.39 1.83-.739 2-1.529.3-1.57-1.319-1.75-2.539-1.66-.26.22-.52.44-.83.66-.56.49-1.179.57-.869 1.49 0 .13.309.35.309.48a.88.88 0 0 1 0 .738 6.81 6.81 0 0 1-.479.521c-.61.75-.31 1.399.26 2.059a1.62 1.62 0 0 1 .26 2.191c-.52.74-1.131.26-1.791 0-1.97-.7-2.579 1.489-3.189 2.889l1.49.26c.13.05.221.181.221.311-.59 1.44-2.372.96-3.592 1.269a3.41 3.41 0 0 0-1.709.791c-.66.61-.441 1.401-.221 2.141a2.43 2.43 0 0 1 .17 1.658 1.3 1.3 0 0 1-.869.791c-.61.18-.781.039-1.221.699-.13.22-.089.4-.219.57s-.222.08-.352.17a1.31 1.31 0 0 0-.869.701 2.94 2.94 0 0 1-.311.479 3.31 3.31 0 0 1-1.49 1 .23.23 0 0 1-.309-.129.89.89 0 0 1 0-.48.2.2 0 0 1 0-.221c.57-1 .35-1.259-.74-.869-.87-.22-1.181-.09-.871.48 0-.08.131.309.131.439a.51.51 0 0 1 0 .439c-.13.3-.69.521-1 .521a1 1 0 0 1-1.141-1.311 5.93 5.93 0 0 1 .439-.92c.18-.35.531-2.01-.389-1.84-.22 0-.571.569-.791.789s-.48.52-.74.74c-.49.39-1.319.7-1.709 0-.22-.4 0-1.179 0-1.619a3.09 3.09 0 0 1 .221-1.66c.18-.35.259-.261.699-.611s.129.48.439-.66c.22-.65.26-.52 0-1a4 4 0 0 1-.309-.609c-.31-1.01.519-2.06 1.309-2.67a3.78 3.78 0 0 1 .701-.439c0-.08-.091-.04.129-.17s.261-.131.391-.131c-.09-.22-.53-.26-.66-.57a2.36 2.36 0 0 1 .83-2.488c.79-.44 1.62.219 2.41.479a1.57 1.57 0 0 1 .74-1.09c.53-.4 1.84-1.62 1.84-2.32.09-.35-.09-.57 0-.92a2.2 2.2 0 0 1 .219-.57 2.49 2.49 0 0 0-.17-1.139c-.09-.22-.35-.48-.35-.74a.33.33 0 0 1 .26-.35h.26c.35 0 .27-.01.57-.311s.74-.169.74.311a5.29 5.29 0 0 1-.219 1 2 2 0 0 1 .828-.35 1.06 1.06 0 0 1 1.141.658c.14.35-.34 1.79-.17 1.92.35.27.44-.74.74-1s.65-.078 1 .092c.87.48.87.92 1.18 1.75a2.84 2.84 0 0 0 1 1.219.31.31 0 0 1 .26.131c.31.13.57-.081.66-.871a7.26 7.26 0 0 0-.129-1c.05-.83.66-1.18 1.269-1.66a13.18 13.18 0 0 0 1.221-1 2.68 2.68 0 0 0 .738-1.488c.05-.14.221-.221.221-.311a1 1 0 0 0-1-1.269c-.75-.08-1.31.09-.92.92a1.9 1.9 0 0 1 .311 1.309c-.14.92-1.141 2.06-2.141 1.4-.57-.35-.349-.919-.699-1.439s-.53-.21-.92-.52a.53.53 0 0 1-.221-.221.16.16 0 0 0-.131 0c-.18.04-.13.261-.35.391s-.53.179-.66-.131.26-.66.48-.83a3.28 3.28 0 0 1 .869-.439c.05-.09.131-.131.221-.221a5.19 5.19 0 0 0 1.791-2.1 3 3 0 0 0-1.711.74c-.22.14-.31.361-.66.311s-.47-.39-.52-.66-.05-1.66-.57-1.49a7.16 7.16 0 0 0-.439 1.66c0 .65.609.389.869.869a.2.2 0 0 1-.129.311c-.65.22-1.141 1.741-2.141 1.221-.31-.18-.311-.441-.311-.791a2.38 2.38 0 0 0-.09-1.09 4.39 4.39 0 0 0-.83-1c-.09-.26-.129-.22-.219 0s-.091.39-.221.74-.261.78-.391 1.09-.349 1.01-.699 1.18c-.56.34-.781-.18-.871-.66a3.32 3.32 0 0 1-.92 0c-.04 0-.129-.129-.129-.219.21-.52-.051-.872-.791-1.092l-.26.262a7.44 7.44 0 0 0-.83.83.21.21 0 0 1-.35 0c-.69-.13-1-.001-1 .389v.391a.89.89 0 0 1-.26.311.84.84 0 0 1-.57 0 1.43 1.43 0 0 0-.57-.17c-.04.05.131.478.131.568a.33.33 0 0 1-.09.221c-.36.3-.441 2-1.361 1a2.26 2.26 0 0 1-.26-.57c-.13-.83-.699-.92-1.619-.35v.35a3.9 3.9 0 0 0-.391 1.711 1.57 1.57 0 0 1-.48 1c-.39.22-.48-.001-.83-.131-.61-.26-.13-.78-1.75-.26.18-.05-.609.39-.479.26-.31.35-.14.61.17.83l.26-.129.48-.262a1.12 1.12 0 0 1 .92 0 .55.55 0 0 1 .219.701.74.74 0 0 1-.26.26c-.05.09-.179.09-.219.09h-.17c-.04.17-.172.31-.172.48a.16.16 0 0 1 0 .129c.43.48 1.442 1.101.521 1.621-.61.35-1.612-.34-2.272-.17-1 .27-.39 1.009 0 1.359s.792.751 1.182 1.141a.21.21 0 0 1 0 .309 1 1 0 0 1-.701.311c-.61.09-.909-.09-1.219.57a2.68 2.68 0 0 1-.221.52c-.09.13-.311.041-.311.131-.57.7-.309.66-.219 1.269a1 1 0 0 1-.701 1.221c-.88.31-1.89-1.001-2.41.309a.2.2 0 0 1-.309.131 1.58 1.58 0 0 1-.57-.48h-.131a.73.73 0 0 0-.66-.129c-.04.04-.17.129-.17.129l-.219.221a2 2 0 0 1-.441.609c-.13.13-.57.09-.74.26s-.04 1.001-.17 1.311a1.76 1.76 0 0 1-.568.699c-.61.53-1.092-.649-.922 1.621 0 .18.131.35.131.57a1 1 0 0 1-.17.609c-.17.22-.35.131-.52.221-1.31.7-.351 1.129.219 1.789.3.4 1.13 1.191.74 1.711-.17.26-.649.26-.869.26l-.52.129a7.74 7.74 0 0 1 0 1 5.12 5.12 0 0 0 .869.221c.92.41 1.271 1.58 1.711 2.41.09.14-.051.311-.221.311-.69.09-1.34.09-2 .09a5.8 5.8 0 0 0-2.141.129 1.25 1.25 0 0 0-.83 1.4c0 .26.09.22 0 .48a.91.91 0 0 1-.26.439c-.49.35-1.1-.131-1.49-.391a12.48 12.48 0 0 1-2.49-2.059c-.31-.3-.389-.65-.699-1a1.08 1.08 0 0 0-1.439-.131c-.09.04-.17.17-.26.17a2.71 2.71 0 0 1-.83.311 2.21 2.21 0 0 0-1.791 1.4c-.22.62.131.92.221 1.49a.79.79 0 0 1-.35.92c-.61.31-1.011-.042-1.272-.521v.262a.21.21 0 0 1-.219.219c-.79.44-1.01.871-.57 1.311 0 .27.09.269.09.439a.78.78 0 0 1-.35.48c-.3.22-.961.26-.871.83.09.31.48.399.48.789a.54.54 0 0 1-.221.441c-.14.09-.179.09-.309.09l-.611.129a.85.85 0 0 0-.52 1c.05.79 1.14 1.4.66 2.231-.05.09-.131.131-.221.221a1.9 1.9 0 0 1-.738.52c-.66.4-.44 1.05 0 1.49h.129c.34.17 1.22.25 1 1s-1.44.261-1.84.311-.531-.041-.311.439a2.2 2.2 0 0 0 .441.609 1.88 1.88 0 0 1 .439 1c0 .13-.051.26-.221.26-.44 0-2.23-.4-1.439 1 .13.26.439.3.609.52.52.57.041 1.232.611 1.842a.16.16 0 0 1 0 .129.23.23 0 0 1 .09.17 1.08 1.08 0 0 1-.48.92 3.56 3.56 0 0 0-1.439 1.66c-.35.96-.431 2.061-1.221 2.801a3.28 3.28 0 0 1-1.529.699c-.48.08-1.491-.09-1.881.17-.74.44.61 1.58.26 2.32a.2.2 0 0 1-.17.131c-.3 0-.52.789-1 .789a.92.92 0 0 1-.57-.221 3.54 3.54 0 0 1-.309 1 3.83 3.83 0 0 0 1.799 1.84 2.23 2.23 0 0 1 1.361.57c.78.65 1.87 1.14 2-.35.05-.96-.212-2.139.658-2.799a.23.23 0 0 1 .352 0c1.31 2.14 1.219 4.64.869 7 1.18-.05 1.711 2.228 2.711 2.488-.09-.65-.131-1.26-.221-1.92a.24.24 0 0 1 .221-.26c.56-.04.64.171 1 .701s.749.529 1.359.699a.92.92 0 0 1 .57.221 1.19 1.19 0 0 1 0 1.309 5.05 5.05 0 0 0-.35.66c.17.22.35.481.52.701h.219a10.21 10.21 0 0 0 1.092-.311 1.33 1.33 0 0 1 .699.131 1.04 1.04 0 0 1 .35.219c.09.09.221.131.311.221.22-.27.479-.531.699-.791 0-.36-.919-1.099-1.139-1.359-.4-.44-.791-.959-1.141-1.439a25.83 25.83 0 0 1-3.109-5.6c-.09-.22.259-.481.389-.221.62 1.37 1.27 2.799 2.76 3.369a.21.21 0 0 1 .131.26 1.33 1.33 0 0 0 2.189 1.361 5.28 5.28 0 0 0 .92-1.221 10.16 10.16 0 0 1 1.92-2.189c.13-.14.35 0 .35.17a3.4 3.4 0 0 1-.609 2.231 6 6 0 0 1-.74.74 4.35 4.35 0 0 0-.479.439l-.092.129a14 14 0 0 0 .611 1.311c1.18.35 1.31-2.02 1.66-2.76a2.4 2.4 0 0 1 1-1.141 1.43 1.43 0 0 1 1.439.131c.3.18.559.49.869.66.88.53 1.491.179 2.191-.391.49-.39 1.58-1.66 2.41-1.66-.26-.39-.521-.169-.871-.389a.71.71 0 0 1-.35-.791c0-.22.221-.4.221-.57a1 1 0 0 0-.311-1.09 2.43 2.43 0 0 1-.35.26 3.09 3.09 0 0 0-.48 1.09.2.2 0 0 1-.35.09c-.48-.44-.831.35-1.311 0a.55.55 0 0 1-.131-.738c.39-.84 1.621-.751 2.141-1.361-.3-.52-.61-.69-1-.52-.17.04-.35.17-.52.17a4.3 4.3 0 0 0-.701.221 14.22 14.22 0 0 0-1.75.66c-.53.27-1.139 1.219-1.709 1.139s-1.31-1.389-1.57-1.789-.61-.79-.35-1.269c.13-.22.35-.31.48-.48.65-.83-.14-1.62-.66-2.231a12.74 12.74 0 0 0-1.361-1.31c-.22-.18-.79-.479-.92-.789-.09-.13 0-.309 0-.439 0-.52.91 0-.09-1a1.62 1.62 0 0 0-.789-.352c-.96-.09-1.4.96-2.269.83a.21.21 0 0 1-.221-.219 1.84 1.84 0 0 1 1.09-1.57c.18-.13 1.09-.091 1.18-.221.22-.31-1.049-1.84-1.219-2.1a.21.21 0 0 1 0-.311 2.15 2.15 0 0 1 1.789-.309c.83.09 1.4.17 1.4-.83a12.83 12.83 0 0 0-.131-1.791c-.57-.31-1.229-.871-1.139-1.311a3.42 3.42 0 0 1-.611-.129c-1.35.78 0 .74.09 1a.92.92 0 0 1 .17.48c0 .44-.518 1.049-.738 1.439l-1.182 2c-.96 1.44-3.02 1.75-3.85 0-.31-.26-.519-.69-.219-1s.74.04 1-.09c.65-.35-.311-.521-.441-.611a.87.87 0 0 1-.35-.52c-.05-.17.13-.35.26-.52h-.09c-.31-.08-.351-.48-.221-.74a1.37 1.37 0 0 1 .391-.48 7.26 7.26 0 0 1 .57-.609c.18-.17.219-.08.439-.17.79-.26.441-.57.701-1.09.13-.26.348-.34.568-.17a4.13 4.13 0 0 1 1.711-1.531c-.44-.3-.791-.83-.131-1.09a.54.54 0 0 1 .641.262c.09.09.001.269.221.439s.129-.7.129-.92c.04-.4.131-.4.391-.66a5.16 5.16 0 0 0 .57-.791c.34-.92-1.27-1.059-.66-2.059.17-.22.26.039.48-.441.09-.17 0-.309.09-.479a.77.77 0 0 1 .57-.262 8.44 8.44 0 0 0 1.488 0 11 11 0 0 0 1.092-.389c.69-.26.69-.52 1-1.09a1.46 1.46 0 0 1 .26-.441c.61-.48 1.219.13 1.219.74.13 1.35-1.009.7-1.359 1.57-.13.35-.081.561-.391.871-.13.09-.299 0-.389.09a5 5 0 0 0-.521 1c0 .09.131.129.131.219.04.39.22.221-.09.701s-.791.479-.791 1.219a1.19 1.19 0 0 0 1.711 1.09c.09-.09.26-.09.26 0a.66.66 0 0 1 .09.83 2.1 2.1 0 0 1-.48.391 2.56 2.56 0 0 1-.74.57c-.26.08-.308-.09-.568-.09-.74-.13-.961 0-1.311.26s-1.391-.18-.871 1.09a.14.14 0 0 1 .092 0l1.568 1.09c.22.17.481.31.701.48.4.31.219.52.789 0s.31-.259 0-.609a.74.74 0 0 1-.17-.611.23.23 0 0 1 .391-.129c1.22 1.1 1.051-1.701 2.141-1.311.48.17.26.48.17.83-.18.57 0 .7.26 1.18l.309.48c.14.43.571.39 1.141-.09.04-.39-.48-.7-.48-1.09.04-.78 1.36-.6 1.75-1s.171-1.05.611-1.4a.93.93 0 0 1 .83-.17 2.54 2.54 0 0 1 1 .48 2 2 0 0 0 2.228.17 2 2 0 0 1 1-.391h.352a.72.72 0 0 0 .83 0 .83.83 0 0 0 .92-.52c.53-.53.96-.961 1.75-.791.04.04.129.08.129.17a1.79 1.79 0 0 1-.439 1.441c-.13.17-.609.349-.699.479-.39.7.568.611.828.701a2.42 2.42 0 0 0 1.75-.131 2.52 2.52 0 0 1 .611-.129.88.88 0 0 1 .92.479c.09.05.09.221.09.311.66 1.05.399.311.789.311.17 0 .31-.09.48-.09a1 1 0 0 1 .83.66c.44 1.05-.871 2.849-1.311 3.719a7.58 7.58 0 0 1-1.709 2 3.5 3.5 0 0 0-.57.57 1.62 1.62 0 0 0 .09 1.66c.09.22.311.31.311.57.17.66-.31 1.32-.57 1.84-.39.79-.74 1.53-1.09 2.32-.92 1.8-1.67 3.759-2.67 5.469-.65 1.05-1.829 2.271-3.189 2.141a.61.61 0 0 1-.611-.35c-.31.43-.61.831-.92 1.221l.83.129c.09 0 .221.08.221.17.14.79-.481 1.18-1.221 1.18a2.31 2.31 0 0 1-.57 0c-.74.57-.829.74-.219.48a5 5 0 0 0 1.09-.26 13.6 13.6 0 0 1 1.92-.26.23.23 0 0 1 .219.219c-.05 1.62-1.01 2.85-1.84 4.16-.48 7-5.29 12.602-8.35 18.682a60.39 60.39 0 0 0-4 9.709 3 3 0 0 1-1.789 2.269 1.8 1.8 0 0 1-1.272-.09 6.4 6.4 0 0 1-.568-.389l-.521-.391-1 1c0 .26.301.69.391 1a3.4 3.4 0 0 1 .09.699 4.7 4.7 0 0 1-.219 1.75 9.69 9.69 0 0 1-1.75 3.15 13.87 13.87 0 0 0-1.57 2c-.48.44-.261.83.609 1.18l.789-.17a2.8 2.8 0 0 0 1.141-1c.52-.75.79-2.28 1.66-2.67a1.29 1.29 0 0 1 1.66.871 3 3 0 0 1-.74 2.67c-1.62 2-4.511 2.25-6.391 4a3.37 3.37 0 0 0-1.238 2.559 16.08 16.08 0 0 0 .658 2.49c.13 1.05-.968 1.191-1.488 1.621s-1.49 1.53-2.231.74a.77.77 0 0 1 0-1.092v-.09a4.77 4.77 0 0 0-.131-1.209c-.75-2.41-1.45-2.58-2.67-3.41a2.68 2.68 0 0 1-1.09-1.57c-.87-.17-1.789.35-2.619-.26a1.09 1.09 0 0 1-.17-1.619c.57-.62 1.189-.22 1.709.17.91.74 1.13.309 2 .219a3 3 0 0 1 1.66.221c.13.05.131.181.131.311a4 4 0 0 0-.441 1.568.78.78 0 0 0 .311.221c1.35.75 3.76-1.089 4.24-2.359.39-1.05-.049-1.57-.439-2.49a1 1 0 0 1-.09-1c.09-.17.26-.31.35-.48a4.05 4.05 0 0 0 .219-1.4 1.55 1.55 0 0 1 .352-.869.86.86 0 0 1 .66-.221c.4 0 .218.131.568.221.83.22 1.181-.091 1.621-.701a6.21 6.21 0 0 0 1-2 1.78 1.78 0 0 0-.57-1.92.86.86 0 0 1-.869.701 4 4 0 0 0-1.441 0c-.91.26-.869 1.129-1.219 1.789a1.37 1.37 0 0 1-1.18.92c-1.52.05-.831-1.969-.521-2.709a5.87 5.87 0 0 0 .441-1.92 3.08 3.08 0 0 1 .17-1.269 1.94 1.94 0 0 1 .52-.66.81.81 0 0 1 .391-.74 1.69 1.69 0 0 1-.092-1.531.21.21 0 0 1 .391 0 2.88 2.88 0 0 0 3.121 1.272c-.53-1.05-3.462-1.491-2.762-2.891.22-.48.751-.48 1.311-.48s.701.4.391-.52-.05-.44-.57-.66a3.43 3.43 0 0 1-.92-.391 2.36 2.36 0 0 1-.609-1.84c0-.48.129-1.569.479-1.789s.651-.05.871.26c.44.62.659 1.141 1.529 1.141a5 5 0 0 0 1.57-.311 4.22 4.22 0 0 1-.789-.439c-.3-.31-.39-1.182-1-1.182a.21.21 0 0 1-.262-.26 5.65 5.65 0 0 0-1-5.6c-.71-.86-2.099-1.64-1.709-3a.2.2 0 0 1 .35-.09 6.45 6.45 0 0 0 1.311 1.141 2.25 2.25 0 0 0 .869.389c.48-1.06-1.05-1.229-1.4-2.059-.21-.62.131-1.49.791-1.49.04-.34.131-.65.131-1a.32.32 0 0 1 .09-.26c.22-.22.52.17.83.17a.55.55 0 0 0 .389-.17 1.18 1.18 0 0 0 .131-1.361 3.68 3.68 0 0 0-1-1c-.4-.39-.92-.79-1.4-1.18a1.47 1.47 0 0 0-1-.48c-.3.05-.559.221-.869.221h-.352c-.26 0-.39.389-.26.699s.39.481.48.791a1.65 1.65 0 0 1-.439 1.439 3.77 3.77 0 0 1-1.311 1.311 1.44 1.44 0 0 1-1.75-.221c-.35-.43-.3-1.05-.52-1.57a1.81 1.81 0 0 0-2.231-1c-1.14.44-.831 1.31-1.141 2.231a7.76 7.76 0 0 1-1.529 2.41 18.59 18.59 0 0 0-2.189 3.85c-1.01 2.32-1.791 4.811-3.281 6.871a.69.69 0 0 1-.309.311c-.27.13-.57-.081-.66-.391a1.48 1.48 0 0 1 .09-.871 31.34 31.34 0 0 1 2.889-6.09 10.06 10.06 0 0 0 1.182-5.559c-.22-2.89-2.5-4.241-4.16-6.56-1.01-1.36-1.4-3.111-2.231-4.551-.65-1.18-1.619-2.15-2.359-3.24a20.94 20.94 0 0 1-1.75-3.6l-4.111-10c-.88-2.1-1.53-6.03-4.07-6.82l-.439-.129c-3.72 1.62-5.251-3.33-6.391-5.82v-.09c-.49.26-1.049.31-1.359.92a2.82 2.82 0 0 1 .48.699 25.75 25.75 0 0 1 1.141 3.06c.4.96.79 1.92 1.27 2.84.75 1.53 2.319 3.019 1.359 4.769s-2.889 2.811-4.549 3.811a50.59 50.59 0 0 1-5.342 2.67 20.48 20.48 0 0 1-2.359 1.31c-.7.31-2.49 1.31-3.15.439-.3-.39-.17-1.13-.17-1.57a14.89 14.89 0 0 0-.389-2.799 57.11 57.11 0 0 1-1-1.881v.17a4.27 4.27 0 0 1-.57 2.061c-1 2.1-.61 4.15-1 6.34a7.88 7.88 0 0 1-.439 1.439c-.35.84-.611 1.671.479 2.061.52.17.83.089 1.18.609a3 3 0 0 1 .131 2.141c-.22 1.25.43 2 1 3 .48.87.561 2.189-.439 2.709a12.58 12.58 0 0 0 .309 2.842l.521 3.238 1.139 6.121a86.552 86.552 0 0 0 1.57 6.56 24.86 24.86 0 0 0 2.06 5.898 7.92 7.92 0 0 1 1.141 2.09c.3.92.179 1.982.609 2.762s1.13 1.349 1.57 2.139a2.67 2.67 0 0 1 .309.611c.75.7 1.711 1.269 2.06 2.269.22.63 3.24 4.56 2.58 5a4.44 4.44 0 0 1-1.141-.701A115.06 115.06 0 0 1 124.63 4.511zm4.519 26.67a53.59 53.59 0 0 0-17 3.24c-4.37 1.57-10.929 4.899-13.119 9.359a46.15 46.15 0 0 1-4.422 6.52A20.86 20.86 0 0 0 91.9 54.59c.09.04.05.17.09.26s.131.129.131.219a11.2 11.2 0 0 0 2.84-1 4.46 4.46 0 0 1 1.529-.17c.91.17.48.35 1 .74 1.8 1.36 2.941 2.531 5.561 2.361a2.38 2.38 0 0 1 1.66.26 3 3 0 0 1 .129.35c.073 1.093 1.073 1.356 3 .789a5.11 5.11 0 0 0 1.801-1.35c1.26-2.62-.39-.78-.74-1 .22.13-1.1-.48-1.269-.57a1.75 1.75 0 0 1-.441-.52 4.58 4.58 0 0 0-1.619-.609 4.65 4.65 0 0 1-1.49-.52c-.57-.44-1.009-.791-.699-1.621s1.22-.82 1.84-1 3.24-.999 3.811-1.619.699-1.711 1.789-1.621a1.3 1.3 0 0 1 1.09.83 2.13 2.13 0 0 1-.52 2.06c-.97 1.22-2.02.959-3.24 1.529-.87-.13-1.001.271-.391 1.141a8.08 8.08 0 0 0 1 0 1.26 1.26 0 0 1 .701.131c1.36.73.57 2.39 3.24 2 .69-.08 1.3-.61 2-.74a.4.4 0 0 1 .439.129c.75.96 1.049 2.191 2.189 2.801a4.25 4.25 0 0 0 .83.35l1.359-.221a.43.43 0 0 1 .74 0c1.22-1.13 1-1.789-.66-1.789a3.64 3.64 0 0 1-.66.17 2.69 2.69 0 0 1-.83.09 1.81 1.81 0 0 1-1.359-.699 1.61 1.61 0 0 1-.09-2.141c.65-.7 1.401-.481 2.141-.221.17.04.209.44.389.48s.221-.131.441-.131c.53.04 1.539.391 1.709-.439a.42.42 0 0 1 .441-.311c.4-.26.749-.559 1.139-.869a.48.48 0 0 1 .439-.311c.48 0 .611.121.871.521s0 1.048 0 1.398a7.29 7.29 0 0 0 .221 1.711 5 5 0 0 1 .479-.48.43.43 0 0 1 .66-.221c.44.31.701.791 1.311.311.31-.26.869-.001.699.439v.092a.48.48 0 0 1 0 .35c-.43.88-.09 1.579-.26 2.449a2.68 2.68 0 0 1-.309.74c-.04.17-.352.559-.352.869a1.45 1.45 0 0 1 .83-.129c.18.05.271.311.441.311a.68.68 0 0 0 .35.26c.22.22.44.22.66-.09.96.04 1.919-.131 1.789 1.309-.09.88-.919 1.311-1.529 1.881a5.87 5.87 0 0 0-1.75 3.109c-.48 2.27-.79 4.411-2.32 6.471-.62.88-1.699 1.71-2.619 1.4a7.62 7.62 0 0 1-1 .219l-1.621.131a2.67 2.67 0 0 1-1.439.439 5.72 5.72 0 0 0-3.281.791 1.79 1.79 0 0 0-1 1.139v.26a1.33 1.33 0 0 1-.219.311c-.17.13-.3.131-.52.131a7.2 7.2 0 0 0-1.361.17c-.43.22-.609.479-1.219.219s-.571-.66-1.441-.83a7.15 7.15 0 0 0-1-.09l-.479-.129c-.26-.09-.48-.09-.74-.09a3.43 3.43 0 0 1-.611-.09 1.88 1.88 0 0 0-1.75.74c-.17.26-.219.61-.479.83a.89.89 0 0 1-.441.309 1.06 1.06 0 0 1-.83.441.72.72 0 0 1-.699-.311 2.51 2.51 0 0 1-.17-.611 1.52 1.52 0 0 0-1-.35 4.09 4.09 0 0 0-.83 1.441 6.85 6.85 0 0 0-.131 2.488c.04 1.31-.568 1.75-1.398 2.58-1.1 1.1-1.762 2.631-2.762 3.811a16 16 0 0 1-3.059 2.891c-.18.13-.44-.001-.35-.221a12.61 12.61 0 0 1 1.75-3.719 6.53 6.53 0 0 1 .09-.922 5.34 5.34 0 0 1 .568-1.658 4.94 4.94 0 0 1 1.66-1.881c.09-.74.311-1.48.311-2.269a5.51 5.51 0 0 0-2.1-4.42h-.131a.78.78 0 0 1-.309-.221c-.35-.4-.17-.96 0-1.4a.14.14 0 0 1 .129-.129c.53-.88 1.841-.881 2.061-1.881 0-.13.17-.129.26-.129.79.3 1.619-.091 2.449.129 1 .3 1.441 1.26 2.711 1 .66-.17 2.191-1.53 2.801-.74a1.66 1.66 0 0 1 .219.74c.21.3.39.651.52.871a2.5 2.5 0 0 0 .83.83 2.62 2.62 0 0 0 2.932-.66c.78-1.05.999-2.19 2.139-3.15s2.59-1.491 3.59-2.711a6.44 6.44 0 0 0 .92-1.709 4 4 0 0 0-1.439-2.891 5.63 5.63 0 0 0-1.311-1c-.96-.48-1.8.04-2.67.35-.26.08-.61.261-1 .391a2.83 2.83 0 0 0-.389.35c-1.24 1.05-2.75 1.13-4.24 1.57-.79.21-1.62.559-2.41.869-.48.17-1.97.351-2.32.871s-1 1-1.57.52c-.04-.09.001-.05-.129-.09s-.311.09-.441.09a.33.33 0 0 1-.309-.219c0-.13.04-.352.17-.352a.54.54 0 0 1-.611-.35c-.08-.4.35-.659.66-.789a1 1 0 0 0 .221-.131c-.7-.84-2.191.35-3.061.52a2.94 2.94 0 0 1-1.84-.17c-.61-.29-1.749-1.61-.609-2 0 0 2.98-.26 1.84-.52-.26 0-.57.09-.83 0-.44-.09-.83-.48-.83-.83s.179-.389.439-.609a.65.65 0 0 0 .57-.52.77.77 0 0 1-.17-.221v-.35c0-.09.08-.221.17-.221a5.2 5.2 0 0 0 2-.66c.09-.04.131-.17.221-.17a.88.88 0 0 1 .35-.17 5.7 5.7 0 0 0 1-.83c.13-1.88-.359-2.449-1.359-1.879a2.88 2.88 0 0 0-1 .479 4.66 4.66 0 0 1-2.141.74 4.43 4.43 0 0 1-1.359-.17v.609c.39 4.59-4.331 5.9-7.611 7.74a25.28 25.28 0 0 0-7.439 6.34 6 6 0 0 0-.17 7.15c.17-.09.43-.05.52-.09s.09-.129.09-.129a7.11 7.11 0 0 0-.57-1.182 3.42 3.42 0 0 1-.129-1.75 2.19 2.19 0 0 1 1.299-1.629c1-.35 2.32.17 3.32.17a19.77 19.77 0 0 0 3.59-.57c1.05-.26 2.501-.7 3.111.57 1.01 2.01-.481 3.539-2.141 4.459a21 21 0 0 1-2.9 1.231c-.94.35-2.26.39-3 1.09a2.5 2.5 0 0 0-.57.92 8.34 8.34 0 0 0-.699 5.25c1.05-.53 2.4-1.229 3.67-.789.92.3 1.49 1.14 2.231 1.66a6.93 6.93 0 0 0 2.32.789c.26.09.608.179.738.439a1.42 1.42 0 0 1 1 .441 2.31 2.31 0 0 1 .48.92 3.36 3.36 0 0 0 .441.789c.05-.09.129-.129.219-.219a2.4 2.4 0 0 1 2.541-.521 3 3 0 0 1 1.119 1.012 4.51 4.51 0 0 0 1.141 1.09c1.58.83 1.799-1.311 2.799-1.881.48-.26 1.131-.56 1.221-1s-.261-.871-.391-1.311a2.6 2.6 0 0 1 .791-2.139 22.18 22.18 0 0 0 3-4 4 4 0 0 1 .57-.92c.66-.65 1.709-.52 2.539-.74a10.94 10.94 0 0 0 2.67-1c.79-.44 2.061-1.481 3.061-1.311 1.48.25-.04 1.56-.52 2a9.41 9.41 0 0 0-1.75 2 3.73 3.73 0 0 0-.66 1.619 1.78 1.78 0 0 0 .609 1.57 1 1 0 0 1 1.4.17 3.41 3.41 0 0 1 .57 1.49 6.22 6.22 0 0 0 2.228 3.24 9 9 0 0 1 2.221-2.68 28 28 0 0 0 1.75-2.231c1.36-1.44 3.68-1.569 4.769-3.279a13.33 13.33 0 0 0 1.531-3.631 6.27 6.27 0 0 1 1-2.619 4.1 4.1 0 0 1 1.398-1.141c.09-.04.092-.129.092-.129.44-.52 1.189-.742 1.709-1.182a6.44 6.44 0 0 0 1.439-1.519c.57-.93.831-2.01 1.441-2.93a3.88 3.88 0 0 1 4.68-1.269c1.09.44 2.58 1.749 2.49 3.059.04.04.17.131.17.131a1.3 1.3 0 0 1 .439.83c.26-.21.649-.26.869-.52.48-.53.17-1.71 0-2.32a5.75 5.75 0 0 0-7.529-3.811c-.05.08-.091.17-.221.17a.76.76 0 0 1-.738-1c.23-.88 1.708-1.139 2.228-1.879.87-1.31-.569-2.14-.129-3.41.39-1 1.571-1.26 2.231-2 .79-.92.568-2.27 1.488-3.06A5.35 5.35 0 0 1 138.31 55c1.36-.35 1.93-1.272 2.76-2.272a3.08 3.08 0 0 1 1.75-1.219c.09 0 .26.04.26.17a1.77 1.77 0 0 0 2.891 1.27c.61-.52.35-1.089.74-1.789s1.22-.57 1.92-.48c1.71.17 2.8-.751 4.16-1.621a3.42 3.42 0 0 1 1.398-.52 3.28 3.28 0 0 0 2.451-.66 5.4 5.4 0 0 1 1.269-1 4.81 4.81 0 0 1 1.359-.17c.84-.08 1.1-.74 1.84-1a4 4 0 0 1 1.272-.09 3.43 3.43 0 0 0 2.32-.83 9.38 9.38 0 0 1 1-.789h-.041c.17-.17.349-.301.449-.051a22.27 22.27 0 0 1-2.889-2.49c-8.7-7.61-22.87-10.629-34.07-10.279zM44.845 72.354a2.45 2.45 0 0 0-1.455 1.316c-.92 2.45-.621 5.509-.791 8.219-.17 2.89.09 5.86-.17 8.75-.17 1.44-.26 2.931-.52 4.371-.14.57-.141 2.969-1.141 2.709-.21-.04-.35-.22-.52-.35l-4-4.109c-1.01-1.05-2.151-2.84-3.81-2.67a9.27 9.27 0 0 0-2.639.84 90.45 90.45 0 0 0-3.5 1.439l-3.67 1.529a7.64 7.64 0 0 0-2.891 1.84c-1.01 1.13-1.709 2.621-3.459 1.791-1.09-.53-1.841-1.269-3.281-1.359S9.9 98.03 10.64 99.34a9 9 0 0 0 1.879-.09 4 4 0 0 1 1.711.439c.88.43 1.93 1 2.1 2 .22 1.24-.919 2.24-1.529 3.24a5.85 5.85 0 0 0-.871 2.799c.05.83.441 1 1.271.83a4.15 4.15 0 0 0 1.44-.57.2.2 0 0 1 .311.131c.09.27.09.531.09.791.13-.57 0-1.271.52-1.711a2.25 2.25 0 0 1 1.879-.52 3.81 3.81 0 0 1 2.24 1.74c.35.44.61.919.92 1.359a2 2 0 0 0 1 .83c.71.22 1.231-.309 1.711-.699.09-.09.35-.041.35.129.04.53.17 1.009.17 1.529 2.01-1.24 4.24 1.362 5.42 2.762a20.36 20.36 0 0 1 2.32 3.408c.21.44.609 1.05.869 1.66a1.81 1.81 0 0 1 .531.291c.27.26.219.66.439.92l.871.52a2 2 0 0 1 .439-.219c.17-.04.35-.172.52-.172a3.68 3.68 0 0 1 1.18-.17c1.1-.04 2.281.441 3.371.311a1.22 1.22 0 0 0 1.139-1.311.84.84 0 0 0-.129-.35.16.16 0 0 1-.131 0c-2.01-1.22-5.639-2.971-3.279-5.731.96-1.21 2.31-1.82 3.5-3s1.88-2.85 3.19-3.85c.88-.65 5.601-2.319 5.211.221-.09.48-.66.96-.66 1.4-.08 1.17 1.31.61 1.92 1a1 1 0 0 1 .301.301c.049-.257.05-.474.139-.811a8.14 8.14 0 0 0-3.24-6 18.74 18.74 0 0 0-3-1.84 40.77 40.77 0 0 0-1.619-.791 13.36 13.36 0 0 1-1.4-.57.75.75 0 0 1-.391-.699c.05-.35.4-.52.66-.74 1.01-.74 1.18-2.18 1.75-3.32a19.82 19.82 0 0 0 1.18-2.1 2 2 0 0 0-.389-2.231c-.53-.39-1.361-.43-1.621-1a1.59 1.59 0 0 1 .17-1.4 11.07 11.07 0 0 0 .52-1c.26-.79.04-1.709.48-2.449.26-.39.701-.7.701-1.18a.89.89 0 0 0-.791-.871 7.45 7.45 0 0 0-1.709.09.33.33 0 0 1-.221 0c-.04 0-.131-.08-.131-.17a1.81 1.81 0 0 1-.129-1.269c.22-.87 1.179-.919 1.789-1.439.92-.82 1.97-.73 2.49-2a5.37 5.37 0 0 0 .35-1.66 5 5 0 0 0-.51-2.051 5.68 5.68 0 0 0-1-1.439c-.04-.09-.129-.09-.129-.09a2.45 2.45 0 0 0-1.955-.176zm89.744.295a1 1 0 0 0-.699.221V73a3.07 3.07 0 0 0-.131.609c-.34 1.18-1.83 1.581-2 2.891h-.039c-.18 1.18.39 2.41.48 3.59a7.42 7.42 0 0 1-2.58 5.728c-.92.79-2.111.791-3.111 1.272-.49.26-.97.609-1.49.869a3 3 0 0 1-.35.131 5.21 5.21 0 0 0-.869.35c-.09.39-.09.79-.09 1.18a2.2 2.2 0 0 0 .52.09 6.06 6.06 0 0 0 2.141-.311 13.91 13.91 0 0 0 6-3.318 10.87 10.87 0 0 0 2-3.721c.4-1.05.829-2.15 1.139-3.24.44-1.75-.78-3.579-.26-5.289 0-.52-.05-1.092-.66-1.182zm3.791 1.881c-.27.13-.481.439-.791.439a25.06 25.06 0 0 1-3.15 12.16 17.78 17.78 0 0 0-1.359 2.189 7.52 7.52 0 0 1-1 1.842 5.82 5.82 0 0 1-3.109 2.189c-1.62.48-2.94-.361-4.16-1.361-.78-.66-2.53-2.398-3.67-1.658a1.54 1.54 0 0 0-.57.869c-.71 1.96-2 5.771 1 6.471 2.1.48 4.9-.711 6.65-1.711 3.72-2.19 6.21-6.299 7.83-10.189 1.05-2.58 1.219-5.64 2.709-8a11.7 11.7 0 0 0 .791-1.221 2.13 2.13 0 0 0 .129-.311h-.049a2.18 2.18 0 0 0-.031-1.189 1 1 0 0 0-1.219-.52zm-12.471 5.219c-.66-.202-1.788 1.469-1.981 1.74a3.57 3.57 0 0 0-.66 1.57c-.04.78.701 1.041 1.361.871a4.78 4.78 0 0 0 1.57-2.711l-.041.01a2.46 2.46 0 0 0 0-1.269.455.455 0 0 0-.25-.211zM82.29 92.609a5.57 5.57 0 0 0-4.721 2 47.16 47.16 0 0 0-.92 3.59c-.26 1.2.391 1.441 1.061 1.811a4.26 4.26 0 0 1 1-.66 14 14 0 0 1 2.1-1.141l.35-.221a12.93 12.93 0 0 0 1.141-1 5.26 5.26 0 0 1 1.18-.699 4.76 4.76 0 0 0 1-.609 1.75 1.75 0 0 0 .26-1.84c-.31-.53-1.311-.66-1.881-.92a2.36 2.36 0 0 1-.568-.311zm-48.803 2.334c.531-.044 1.047.086 1.682.586a10.28 10.28 0 0 1 3.111 4.109c.79 1.84.828 3.681 1.488 5.471a6 6 0 0 0 .621 1.449c.92 1.49 1.57 2.94 0 4.16l-2.76 2.141a3.84 3.84 0 0 1-1.4.83 1.91 1.91 0 0 1-1.881-.66c-1.71-1.53-3.019-3.5-4.859-4.9-2.23-1.66-4.64-3.109-7-4.549-.13-.09-.3-.172-.35-.352s.09-.35.26-.35c-.57-.3-1.14-.65-1.66-1a.8.8 0 0 1-.48-.439c-.21-.49.22-1.049.66-1.359.92-.61 1.41-1.84 2.41-2.32.61-.31 1.26 0 1.92 0 1.32-.04 2.241-1.271 3.461-1.791a22.32 22.32 0 0 1 3-.57c.7-.195 1.246-.411 1.777-.455zm53.152 6.816a1.86 1.86 0 0 0-.48.09c-.13.09-.261.129-.391.219-1.37.69-3.43 1.79-5 1-.7-.35-1.229-.959-2.059-.869-1.27.13-1.442 2.629-1.272 4.199a18.37 18.37 0 0 1 .441 2.772c.83-.65 1.93-.65 2.93-1a41.31 41.31 0 0 0 5.16-2.141 3.45 3.45 0 0 0 1.311-1.18h-.051a5.59 5.59 0 0 0 .77-2.65 2.19 2.19 0 0 0-1.359-.439zm45.32 1.199a.7.7 0 0 1 .479.439 1.19 1.19 0 0 1 .012.352c-.09.09-.092.219-.092.309.17.09.391.221.611.311.3-.09.39-.57.74-.66a.6.6 0 0 1 .699.17c.35.44 0 .96-.35 1.269a4.39 4.39 0 0 0-.871.701 1.63 1.63 0 0 0-.09 1.359c.04.27.08.44-.09.66-.44.48-1.099.129-1.359-.311a4.71 4.71 0 0 1-.311-1.359 6.79 6.79 0 0 0-.17-.92c-.31-.7-.439-.349-.699-.699a.87.87 0 0 1 .26-1.4h.09a1.83 1.83 0 0 1 1.141-.221zm4.519 4.08c-.31.09-.361.32-.311.66s.311.65.311 1c.39-.22 1.88-.7 1.75.17a1.23 1.23 0 0 1-.439.609 8 8 0 0 0-1.881 2.451.39.39 0 0 0 0 .219.6.6 0 0 0 .131.17 1 1 0 0 0 1.09.131c.04-.04.17-.131.17-.131.4-.4.4-1.139.57-1.619l-.031-.039a5.9 5.9 0 0 0 .65-1.871 2.13 2.13 0 0 0-1.49-1.66.75.75 0 0 0-.52-.09zm-10.461.199c.34.13.26.481.17.791h.311c.35.04.169.131.609.131s.351-.042.611-.262a.77.77 0 0 1 .35-.219.62.62 0 0 1 .48 0 .57.57 0 0 1 .219.789 3.06 3.06 0 0 1-.35.441 1.08 1.08 0 0 0-.35.609.93.93 0 0 1 0 .35.58.58 0 0 1-.74.439c-.52-.13-.57-.66-1-.92s-.87-.22-1.09-.74a.75.75 0 0 1 .211-.879l.09-.09c-.04-.31.139-.571.479-.441zm4.641 2.518c-.097 0-.195.077-.26.232l-.131.441c-.038.125-.152.257-.162.461a.87.87 0 0 0 .242.408.47.47 0 0 1 .131-.311c.18-.3.569-.69.439-1-.065-.155-.162-.232-.26-.232zm1.711 1.563c-.39-.04-.48.44-.4.82a1.13 1.13 0 0 0 .48.611c.13-.22.349-.351.439-.611a.59.59 0 0 0-.52-.789zm-2.34 1.602a1.55 1.55 0 0 0-.391.17.33.33 0 0 1 .09.17c.04.31-.131.22-.221.66s.52 1.309-.09 1.439h-.48a.72.72 0 0 0-.389.869 1.44 1.44 0 0 0 .699.74.62.62 0 0 0 .26.09.37.37 0 0 0 .221-.129 6.73 6.73 0 0 0 .57-.52c.09-.04.05-.001.09-.131s-.131-.261-.131-.391a.47.47 0 0 1 .441-.609.88.88 0 0 1 .699.48c.14.18.181.4.311.57a.52.52 0 0 0 .57.219c.04-.04 0-.049.17-.129s.349-.08.479-.17a.44.44 0 0 0 .17-.221l-.029-.029c.05-.09.16-.102-.15-.102s-.44-.389-.66-.609a1.68 1.68 0 0 0-.83-.221c-.31-.05-.57-.258-.57-.568a.93.93 0 0 1 .131-.311.59.59 0 0 0-.09-.701c-.21-.27-.869-.089-.869-.439zm4.26 1.76a1.76 1.76 0 0 0-.701.57v.35a.26.26 0 0 0 0 .17.45.45 0 0 1 .391-.09c.26.09.35.44.35.66a2.22 2.22 0 0 0 .57 1.529c.65.52 1.181.22 1.311-.48l-.031.01c.13-.74-.009-.829-.359-1.228s-.79-1.32-1.269-1.49a.55.55 0 0 0-.26 0zm-9.65.389c.21.14 2 .621 1 1.141-.53.26-1.091-.09-1.531.09s-.79.621-1.269.791c0 .13.09.169-.17.219s-.569.09-.699-.26.31-.83.48-1.18.298-.789.738-.789h.791a1.46 1.46 0 0 1 .66-.012zm-9.756 3.828a.249.249 0 0 1 .176.113h.09c.13.05.131.129.221.219.13.31.219.221.479.311.61.17.741.83.131 1.09-.09.09-.17.09-.26.09a1 1 0 0 0-.311.311c-.09.09-.181.26-.311.26a.42.42 0 0 1-.559-.141 2.22 2.22 0 0 1 .17-2.139c.045-.085.109-.118.174-.113zm-85.322.902c-.142.007-.289.09-.441.27a1.38 1.38 0 0 0-.262.74 26.17 26.17 0 0 0 .262 9.4 12.47 12.47 0 0 0 1.27 3.721c.55 1.01 1.73 2.321 3 2.231a.29.29 0 0 0 .311-.172c.04-.09.04-.169.1-.129-.22-1.28-1.23-2.059-1.4-3.279a17.18 17.18 0 0 1 .26-4.24c.14-1.49-.781-2.93-1.221-4.33-.157-.578-.881-4.263-1.877-4.211zm90.236 1.332a.72.72 0 0 1 .432.098 1.1 1.1 0 0 1 .439 1c.09 1.05-.39 2.15.09 3.15a2.66 2.66 0 0 1 .311.439l1-.309c0-.04-.08-.221 0-.391s.04-.31.17-.48c.31-.39.83-.43 1.18-.74a4.4 4.4 0 0 0 1.141-1.568c.09-.26.05-.44.311-.57a.62.62 0 0 1 .738.26 2.34 2.34 0 0 1 .221.48c.27.39-.221.088.439.479 1.23.74.181.08.441.17.74.22 1.31.57 1 1.49a.2.2 0 0 1-.352.09c-.39 1.17-.39 1.48 0 1a4.06 4.06 0 0 0 .441-.219c.53-.18 1.049-.141 1.529-.311 1-.4 2.08-.09 3-.66.18-.09.401.09.311.26a4.86 4.86 0 0 1-.871 1.621c-.26.26-.478.18-.738.35-1.8 1.13-.441.96-.311 1.57v.609c.08.74.039.61.389 1 .53.52.831.96.221 1.66-.44.44-.999.7-1.439 1.18s-1.01.7-1.18 1.4a.2.2 0 0 1-.17.129c.17.79.21 1.541-.66 1.711-.27.05-.4-.17-.66-.17a7.12 7.12 0 0 0-1.361-.131 1.23 1.23 0 0 1-.658-.26c-.48-.26-.531-.519-.701.221s-.129.35.221.74c.61.7 1.089 1.66-.221 1.92a4.69 4.69 0 0 1-2.269-.52 4 4 0 0 0-2.58 0 2.34 2.34 0 0 1-.699.568c-.51.3-1.971.832-1.281 1.352.13-.13.26-.17.35 0a1 1 0 0 1-1.139 1.269c-.66-.18-.971-.7-1.361-1.18-.88-1.1-1.839-1.142-3.109-1.272-.49-.05-1.23-.35-.66-.92.13-.13.39 0 .57-.26s-.35-.649-.52-.869a1.18 1.18 0 0 1-.26-1.18c.34-.79 1.34-.571 2-.791.83-.26.57-.959 1.09-1.439a1.62 1.62 0 0 1 1.269-.26 2.33 2.33 0 0 0 1.92-.439 4.68 4.68 0 0 1 .699-.611 5.83 5.83 0 0 1 1.441-.57c.66-.21.749-.699 1.359-.869.22-.04 1.229-.13 1.359-.35.22-.44-.179-1.221-.439-1.441-.09-.09-.221-.129-.311-.219a8.41 8.41 0 0 1-.74-.57c-.31-.26-.219-.4-.699-.26s-.52.49-1 .66-.74-.221-1.09-.441a2.08 2.08 0 0 0-1.09-.309c-.13 0-.22.09-.35.09-.35-.09-.271-.389-.441-.609-.4-.61-.928-.211-1.488-.611s-.261-1.14.309-1.4a1.82 1.82 0 0 1 1.361.131c.56.22.39.4 1-.17 1.13-1.01.299-.09.389-.66.09-.09 0-.22 0-.35a.78.78 0 0 1 .48-.66c.18-.08.49-.04.66-.17.43-.3.26-.65.17-1-.127-.397.032-.84.398-.889zm-3.559 7.209a8.74 8.74 0 0 1 .92.439.75.75 0 0 1 .48.48 1.51 1.51 0 0 1 0 .869 7.7 7.7 0 0 1-.439 1.311c-.27.4-.791.88-1.272.57-.66-.39.22-1.05.41-1.49a2.34 2.34 0 0 0 .17-.701h-.219c-.3-.13-.52.09-.74.311a.23.23 0 0 1-.09.17c-.44.31-.971.48-1.361 0a1 1 0 0 1 .26-1.439 2.45 2.45 0 0 1 1.881-.52zm6.779 3.59-.479.129-.01.041c-.26.04-.301.22-.301.35a.2.2 0 0 1 .17.221v.129c.13.22.259.311.789.311s.831-.13 1.272 0 .869.52 1.439.52a3.93 3.93 0 0 0 1.84-.57c-.09-.39-.129-.78-.699-1a4.73 4.73 0 0 0-1.92-.129zm-1.93 1.231c-.61.04-.389.089-.609.479a5.86 5.86 0 0 0-.26.521l-.01.039a2.32 2.32 0 0 0-.25.449v.09c.17.22.349.22.479 0 .13 0 .261-.129.391-.129.39 0 .3.301.52.391 1.01-.18 1.051-.621.221-1.361-.09-.09-.17-.089-.26-.219s-.221-.17-.221-.26zm-11.545 3.922a.22.22 0 0 1 .176.088 2 2 0 0 1 .83 1.269c.05.27-.17.529-.17.789 0 .7.79 1.141 1.18 1.311s.91.26 1 .74a.59.59 0 0 1-.311.609c-.96.49-1.959-1.18-2.619-1.57-.31-.18-.611-.268-.701-.658a.91.91 0 0 1 0-.48c.09-.35.35-.651.4-.961a2.69 2.69 0 0 0-.09-.83.24.24 0 0 1 .131-.219.22.22 0 0 1 .174-.088zm-57.475.258a.7.7 0 0 1-.17.309c-.04.09-.171.09-.131.09s.131.092.131.092l.129.256c.047-.08.087-.124.172-.086zm44.27 8.629a1.59 1.59 0 0 0-.609.09c-.08.09-.21.05-.17.09s.03.04.17.17.271.39.311.48.156.165.164.252c.432-.436.473-.784.135-1.082zm89.568 6.199c-.091.027-.18.1-.268.242a1.45 1.45 0 0 0-.09 1.619c.44.61.959 1.31 1.619 1.4 1.526.17 2.664 1.174 4.059 1.566a106.35 106.35 0 0 0 13.473 3.303 2.88 2.88 0 0 0-2.272-1.789 106.85 106.85 0 0 1-10.189-4c-1.84-.74-3.41-2.1-5.51-2.1-.262 0-.549-.322-.822-.242zm-34.168 1.162a.89.89 0 0 1 .699.92c-.09 1.22-.09 2.18 1.4 2.84.79.38 1.05 2 1.49 3a.88.88 0 0 1-.129.869c-1.96 1.26-2.101 4.07-4.371 5.07-.74.35-.299 1.139-.609 1.619a20 20 0 0 1-5 5 7.09 7.09 0 0 0-2 2.231 8.93 8.93 0 0 1-3.85 3.461 1.25 1.25 0 0 0-.48 1.359 1.07 1.07 0 0 1-.48 1.221c-1.44.83-2.01 2.4-2.93 3.67-.35.53-1.139.309-1.269 1.139.31.26.66-.18.92.17-.04.09-.131.262-.131.262-2.15.43-2.76 2.269-3.59 3.889-.26.44-.39.829-1 .439-.26-.17-.341.05-.391.57s-.179 1.09-.789 1-.7-.48-.48-1.18c.66-1.92 1.371-3.719 3.371-4.719.08 0 .17-.131.17-.221.31-1.14.309-1.14 1.309-1.66a2 2 0 0 0 .15-3.529c-.7-.4-.66-.921-.35-1.272.44-.53.7.251.92.391s.35.621.74.311a.59.59 0 0 0 0-.74c-.31-.44.129-.751.129-1.141.13-.92.081-1.79-1.359-1.92 2.14.04 1.531-1.93 1.881-2.76 1.36-3.4 3.668-6.07 5.728-9 1.18-1.7 2.881-3.07 3.541-5.07.22-.75 1.399-1.189.699-2.189.86-.4 1.3-1.231 2-1.711.4-.26.75 1.36 1.4.83s-1.01-.829-.35-1.529c.17-.27 0-1.709 1-.439.3.34 1.001-.31 1.221-.66s.309-.65.789-.52zm-55.33.189c.11-.023.221.02.221.15.13.79 1.609.53 1.789 1.269s-.609 1-1.219 1c-.09.3-.092.559-.092.869 0 .09-.08.221-.17.221-2.14.37-1.83-3.5-.84-3.269a.15.15 0 0 1 .09 0c0-.13.111-.218.221-.24zm-1.74 3.029a.9.9 0 0 1 1.1.82 8.12 8.12 0 0 0 .262 1.49 1.55 1.55 0 0 1 .17.74.6.6 0 0 1-1 .311 2.3 2.3 0 0 1-.441-1.922 3.83 3.83 0 0 1-.26-1.219c0-.13.08-.221.17-.221zm15.711 4.551a4.86 4.86 0 0 1-.701.311.4.4 0 0 0-.219.129.81.81 0 0 0 .309-.09 4.06 4.06 0 0 0 .441-.221h.029a.6.6 0 0 0 .141-.129zm-26.74.465c-.323.01-.596.14-.551.535 0 .13-.049.26-.219.26a5.93 5.93 0 0 1-.871-.09 3.1 3.1 0 0 0 .66 1.311c.26.26.611.439.871.699a.87.87 0 0 1 .309.789c-.08.92-.999 1.141-1.789 1.141a4.91 4.91 0 0 0 1.57 1.711.21.21 0 0 1 .26-.131c.13.04.259.17.389.17-.05-.13.08-.26.17-.26a3.37 3.37 0 0 0 2.4-3.07c.04-.17.22-.3.35-.17a1.28 1.28 0 0 1 .391.09 11.51 11.51 0 0 1-.92-1.789 2.09 2.09 0 0 1-1.221-.441 1.73 1.73 0 0 0-.949-.568 1.955 1.955 0 0 0-.85-.186zm14.236 3.932c.303.52.57 1.031.914 1.492a2.78 2.78 0 0 1-.09-1 3.58 3.58 0 0 1-.824-.492zm-52.777.764c.75 1.37.18 3.369 1.84 4.369-.83 1.58.52 3.021.17 4.641a3.26 3.26 0 0 0 1.361 2.76c.14.09.401.09.311.311-.56 1.53-.081 2.93.439 4.33.17.61-.04.959-.83 1.439.92-.05 1.579-.011 1.359.869s.439 1.62.609 2.41c.13.48.572 1.791 1.842.871.39-.31.96-.001 1.18.479 1.01 2.32 2.459 4.61 2.889 7s1.09 4.851.74 7.391c-.26 1.97-2.14 3.451-3.85 2.711.44-.39.701.35 1.141-.17-1.45-.83-1.751-2.37-2.541-3.59-1.01-1.53-1.67-3.242-2.67-4.772-1.09-1.57-1.35-3.709-1.98-5.629a120 120 0 0 1-3.76-16.141c-.48-3.02.311-5.819 1.141-8.619.09-.27.259-.66.609-.66zm39.01 2.199a.37.37 0 0 1-.219.131c-.26 0-1.311-.09-1.791-.09.04.18.131.398.131.568.35.13.739.262.869.262.57.13 1 .39 1.09 1a.24.24 0 0 1-.17.26l-1.488.389c0 .09-.092.131-.092.221a1.61 1.61 0 0 0 0 .66 5.12 5.12 0 0 0 3.16 1.189l-1.139-3.15c-.05-.09.08-.26.17-.26a1.62 1.62 0 0 0 .92-.26zm8.402.885c-.154-.032-.361.055-.621.275a.85.85 0 0 0-.35 0 7.89 7.89 0 0 1-.352.92.19.19 0 0 1-.17.26c-.09.04-.09.131-.09.131-.08.53-.34 1.049-.52 1.139s-.269 0-.439 0-.13-.129-.17-.129h-.131l-.17.17.01-.029c-.4.39-.069.61.191 1.09a.21.21 0 0 1-.092.35l.092.09c.96.26 2.359.83 2.359 1.66.26 1 .739.909 1.439-.311-.04-.09-.09-.041-.17-.221s-.301-.269-.391-.439a1.32 1.32 0 0 1-.219-.699.77.77 0 0 1 .311-.701 1.93 1.93 0 0 1-.311-1.139c0-.44.09-.831.09-1.272a3.76 3.76 0 0 0 0-.699c-.045-.26-.145-.413-.299-.445zm4.008 13.287a1.698 1.698 0 0 0-.68.018 2.23 2.23 0 0 0-1.4 1.75 5 5 0 0 0-.158 2.102 2.15 2.15 0 0 0 .658 1.75c.13.13.75.349.92.129a3 3 0 0 0-.129-.83c-.18-1.09-.701-2.41.129-3.41a1.49 1.49 0 0 1 2-.26.25.25 0 0 1 0 .391c-.57.57-.479.92.131.92a.73.73 0 0 0 .83.09 3.92 3.92 0 0 0 1-.35 11.84 11.84 0 0 0 1.619-.92.13.13 0 0 1 .17 0v-.311a4.46 4.46 0 0 1-3.189-.221c-.593-.292-1.231-.737-1.9-.848zm4.861 1.879c-.36.22-.841.529-1.361.789.22-.09.57-.09.83-.09l-.01-.01a1.53 1.53 0 0 0 .541-.689zm-7.106 8.305a3 3 0 0 0-.166 1.205c.22.7.611.79 1.221.35.08-.13.08-.4.17-.57a.94.94 0 0 1 .609-.389c-.09-.31-.218-.441-.828-.311-.4.09-.532.35-.922.09a.32.32 0 0 1-.09-.26.16.16 0 0 0 .006-.115zm3.686.045a.64.64 0 0 0-.26.391 5.31 5.31 0 0 1-.391.869c.04 0 .129.09.129.09.9.57.511-.61.521-1.09zm34.934 3.951c1.408-.044 2.744.739 2.977 2.119-.52-.17-.08-.781-.74-.871.09 1.62-1.051 2.76-1.621 4.07-.74 1.62-1.88 3.101-2.58 4.811-.74 1.75-2.359 3.151-3.769 4.641a114.13 114.13 0 0 1-11.5 11.939c-2.27 2.01-5.03 2.889-7.83 3.719a.82.82 0 0 1-.869-.129c.75-1.4 2.67-1.94 2.67-3.939 1.75-.18 2.279-2.1 3.809-2.67a3.28 3.28 0 0 0 1.522-2.641c.04-.13-.091-.391.129-.391 1.62-.3 2.54-1.529 3.41-2.709.39-.53.83-.53 1.66-.09-.52-.75-.84-1.311 0-1.621s1.141-1.23 1.711-1.84c.35-.38 1.178-1.43-.262-2-.44-.22-.479-.781-.219-1.221 1.4-2.1 2.469-4.569 4.289-6.209s3.5-3.551 5.82-4.641a3.59 3.59 0 0 1 1.394-.328zm-41.445 25.641a.21.21 0 0 1 .16.188c.09.09.352.09.352.09l.359.221a1.11 1.11 0 0 1 .17.74c-.04.66-.701.96-1.221 1.18-.26 0-.57.17-.83 0a.76.76 0 0 1-.219-.789 1.93 1.93 0 0 1 1-1.4.16.16 0 0 1 0-.131.21.21 0 0 1 .229-.098zm-.084 3.084c.329.107.383.582.016.904a5.22 5.22 0 0 1-1.272.92c-.3.26-.56.48-1 .35-.13-.04-.129-.08-.129-.17a.8.8 0 0 1-.311-1.269c.22-.31.57-.311.92-.311a1.61 1.61 0 0 0 .791 0c.22-.08.35-.301.57-.391a.608.608 0 0 1 .414-.033z"></path></svg>